<?xml version="1.0" encoding="UTF-8"?><svg id="art" xmlns="http://www.w3.org/2000/svg" viewBox="0 0 665.14 151.35"><defs><style>.cls-1{fill:lch(81.319% 131.414 140.216);}.cls-1,.cls-2{stroke-width:0px;}.cls-2{fill:lch(55.319% 131.414 140.216);}</style></defs><polygon class="cls-2" points="631.85 4.52 109.58 4.52 28.18 144.81 631.85 144.81 631.85 109.76 595.09 74.66 631.85 39 631.85 4.52"/><polygon class="cls-1" points="118.26 17.7 52.49 131.62 184.04 131.62 118.26 17.7"/><polygon class="cls-1" points="467.16 17.7 401.38 131.62 532.93 131.62 467.16 17.7"/><path class="cls-1" d="m356.32,17.7c-1.09,0-50.16,0-50.16,0v113.91h50.16c31.46,0,56.96-25.5,56.96-56.96s-25.5-56.96-56.96-56.96Z"/><path class="cls-1" d="m296.43,62.58c0-24.78-20.55-44.88-45.91-44.88-.88,0-56.77,0-56.77,0v113.64l102.67.27-19.22-32.54c11.63-8.14,19.22-21.45,19.22-36.5Z"/><path class="cls-1" d="m578.58,74.66l40.51,40.04c-22.11,22.37-58.18,22.58-80.55.47-22.37-22.11-22.58-58.18-.47-80.55,22.11-22.37,58.18-22.58,80.55-.47l-40.04,40.51Z"/></svg>