<?xml version="1.0" encoding="utf-8"?>
<!-- Generator: Adobe Illustrator 24.0.0, SVG Export Plug-In . SVG Version: 6.00 Build 0)  -->
<svg version="1.2" baseProfile="tiny" id="Layer_1" xmlns="http://www.w3.org/2000/svg" xmlns:xlink="http://www.w3.org/1999/xlink"
	 x="0px" y="0px" viewBox="0 0 288.3 189.8" xml:space="preserve">
<g>
	<path fill="#262262" d="M13.4,172.5l-4.5,17H6l1.6-6H4.6l-1.6,6H0.2l1.6-6H0l0.7-2.7h1.8l2.7-10c0.5-1.9,2-2.9,4.3-2.9
		C12.9,167.9,14.2,169.5,13.4,172.5z M9.2,170.7c-0.8,0-1.3,0.4-1.5,1.2l-2.4,8.9h2.9l2.3-8.5C10.9,171.2,10.5,170.7,9.2,170.7z"/>
	<path fill="#262262" d="M24.9,172.9l-0.7,2.7c-0.4,1.5-1.3,2.4-2.9,2.7c1.3,0.5,1.7,1.5,1.3,3l-2.2,8.2h-2.9l2.1-8
		c0.3-1.3,0.1-1.9-0.7-1.9h-1.7l-2.6,9.9h-2.9l2.6-9.9h-1.7l0.7-2.7h1.8l2.3-8.8h3.9C24.6,168.1,25.8,169.7,24.9,172.9z M20.8,170.9
		h-1.1l-1.6,6.1h1.7c0.8,0,1.4-0.5,1.6-1.4l0.7-2.8C22.4,171.5,22,170.9,20.8,170.9z"/>
	<path fill="#262262" d="M32.2,186.9c-0.5,1.9-2.1,2.9-4.3,2.9c-3.2,0-4.7-1.7-3.9-4.7l3.8-14.3c0.5-1.9,2-2.9,4.3-2.9
		c3.3,0,4.6,1.6,3.9,4.7l-0.3,1.1h-2.8l0.3-1.4c0.3-1.1-0.2-1.6-1.2-1.6c-0.8,0-1.4,0.4-1.6,1.2l-3.6,13.5c-0.3,1,0.2,1.6,1.3,1.6
		c0.8,0,1.4-0.5,1.6-1.2l0.5-1.8H33L32.2,186.9z"/>
	<path fill="#262262" d="M46,170.9h-2.9l-5,18.7h-2.9l5-18.7h-2.9l0.7-2.7h8.6L46,170.9z"/>
	<path fill="#262262" d="M45.3,189.5h-2.9l5.7-21.4H51L45.3,189.5z"/>
	<path fill="#262262" d="M57.4,186.9c-0.5,1.9-2.1,2.9-4.3,2.9c-3.2,0-4.7-1.7-3.9-4.7l3.8-14.3c0.5-1.9,2-2.9,4.3-2.9
		c3.3,0,4.6,1.6,3.9,4.7l-0.3,1.1h-2.8l0.3-1.4c0.3-1.1-0.2-1.6-1.2-1.6c-0.8,0-1.4,0.4-1.6,1.2L52,185.4c-0.3,1,0.2,1.6,1.3,1.6
		c0.8,0,1.4-0.5,1.6-1.2l0.5-1.8h2.9L57.4,186.9z"/>
	<path fill="#262262" d="M77.6,172.9l-3.7,13.9c-0.5,1.9-1.9,2.8-4.3,2.8h-5.1l5.7-21.4H74C77.2,168.1,78.4,169.7,77.6,172.9z
		 M73.4,170.9h-1.1l-4.3,16h1.4c1,0,1.7-0.5,1.9-1.6l3.3-12.5C75.1,171.5,74.6,170.9,73.4,170.9z"/>
	<path fill="#262262" d="M88.9,172.5l-4.5,17h-2.9l1.6-6h-2.9l-1.6,6h-2.9l1.6-6h-1.8l0.7-2.7h1.8l2.7-10c0.5-1.9,2-2.9,4.3-2.9
		C88.4,167.9,89.7,169.5,88.9,172.5z M84.8,170.7c-0.8,0-1.3,0.4-1.5,1.2l-2.4,8.9h2.9l2.3-8.5C86.4,171.2,86,170.7,84.8,170.7z"/>
	<path fill="#262262" d="M99.3,170.9h-2.9l-5,18.7h-2.9l5-18.7h-2.9l0.7-2.7h8.6L99.3,170.9z"/>
	<path fill="#262262" d="M109.3,172.5l-4.5,17h-2.9l1.6-6h-2.9l-1.6,6h-2.9l1.6-6H96l0.7-2.7h1.8l2.7-10c0.5-1.9,2-2.9,4.3-2.9
		C108.8,167.9,110.2,169.5,109.3,172.5z M105.2,170.7c-0.8,0-1.3,0.4-1.5,1.2l-2.4,8.9h2.9l2.3-8.5
		C106.9,171.2,106.4,170.7,105.2,170.7z"/>
	<path fill="#262262" d="M122.3,186.9c-0.5,1.9-2.1,2.9-4.3,2.9c-3.2,0-4.7-1.7-3.9-4.7l3.8-14.3c0.5-1.9,2-2.9,4.3-2.9
		c3.3,0,4.6,1.6,3.9,4.7l-0.3,1.1H123l0.3-1.4c0.3-1.1-0.2-1.6-1.2-1.6c-0.8,0-1.4,0.4-1.6,1.2l-3.6,13.5c-0.3,1,0.2,1.6,1.3,1.6
		c0.8,0,1.4-0.5,1.6-1.2l0.5-1.8h2.9L122.3,186.9z"/>
	<path fill="#262262" d="M136.8,172.5l-3.8,14.3c-0.5,1.9-2,2.9-4.3,2.9c-3.4,0-4.7-1.6-3.9-4.7l3.8-14.3c0.5-1.9,2-2.9,4.3-2.9
		C136.3,167.9,137.6,169.5,136.8,172.5z M134,172.3c0.3-1.1-0.1-1.6-1.3-1.6c-0.8,0-1.4,0.4-1.6,1.2l-3.6,13.5
		c-0.3,1.1,0.1,1.6,1.2,1.6c0.8,0,1.4-0.4,1.6-1.2L134,172.3z"/>
	<path fill="#262262" d="M139.4,189.5c-3.2,0-4.4-1.6-3.5-4.7l4.5-16.7h2.9l-4.5,16.8c-0.3,1.2,0.1,1.9,1.3,1.9h3.4l-0.7,2.7H139.4z
		"/>
	<path fill="#262262" d="M148.5,189.5c-3.2,0-4.4-1.6-3.5-4.7l4.5-16.7h2.9l-4.5,16.8c-0.3,1.2,0.1,1.9,1.3,1.9h3.4l-0.7,2.7H148.5z
		"/>
	<path fill="#262262" d="M166.5,172.5l-4.5,17h-2.9l1.6-6h-2.9l-1.6,6h-2.9l1.6-6h-1.8l0.7-2.7h1.8l2.7-10c0.5-1.9,2-2.9,4.3-2.9
		C166,167.9,167.4,169.5,166.5,172.5z M162.4,170.7c-0.8,0-1.3,0.4-1.5,1.2l-2.4,8.9h2.9l2.3-8.5
		C164.1,171.2,163.6,170.7,162.4,170.7z"/>
	<path fill="#262262" d="M178.1,172.9l-0.8,3c-0.4,1.4-1.3,2.2-2.9,2.5c1.4,0.5,1.8,1.6,1.4,3.2l-1.4,5.2c-0.5,1.9-1.9,2.8-4.3,2.8
		H165l2.6-9.9h-1.7l0.7-2.7h1.8l2.3-8.8h3.8C177.8,168.1,178.9,169.7,178.1,172.9z M172.2,179.7h-1.7l-1.9,7.2h1.4
		c1,0,1.7-0.5,1.9-1.6l1-3.7C173.3,180.3,173,179.7,172.2,179.7z M173.9,170.9h-1.1l-1.6,6.1h2c0.6,0,1.1-0.4,1.3-1.1l0.8-3.1
		C175.6,171.5,175.1,170.9,173.9,170.9z"/>
	<path fill="#262262" d="M189,172.5l-3.8,14.3c-0.5,1.9-2,2.9-4.3,2.9c-3.4,0-4.7-1.6-3.9-4.7l3.8-14.3c0.5-1.9,2-2.9,4.3-2.9
		C188.5,167.9,189.8,169.5,189,172.5z M186.2,172.3c0.3-1.1-0.1-1.6-1.3-1.6c-0.8,0-1.4,0.4-1.6,1.2l-3.6,13.5
		c-0.3,1.1,0.1,1.6,1.2,1.6c0.8,0,1.4-0.4,1.6-1.2L186.2,172.3z"/>
	<path fill="#262262" d="M200.7,172.9l-0.7,2.7c-0.4,1.5-1.3,2.4-2.9,2.7c1.3,0.5,1.7,1.5,1.3,3l-2.2,8.2h-2.9l2.1-8
		c0.3-1.3,0.1-1.9-0.7-1.9H193l-2.6,9.9h-2.9l2.6-9.9h-1.7l0.7-2.7h1.8l2.3-8.8h3.9C200.3,168.1,201.5,169.7,200.7,172.9z
		 M196.5,170.9h-1.1l-1.6,6.1h1.7c0.8,0,1.4-0.5,1.6-1.4l0.7-2.8C198.1,171.5,197.7,170.9,196.5,170.9z"/>
	<path fill="#262262" d="M212.4,172.5l-4.5,17H205l1.6-6h-2.9l-1.6,6h-2.9l1.6-6H199l0.7-2.7h1.8l2.7-10c0.5-1.9,2-2.9,4.3-2.9
		C211.8,167.9,213.2,169.5,212.4,172.5z M208.2,170.7c-0.8,0-1.3,0.4-1.5,1.2l-2.4,8.9h2.9l2.3-8.5
		C209.9,171.2,209.4,170.7,208.2,170.7z"/>
	<path fill="#262262" d="M222.3,170.9h-2.9l-5,18.7h-2.9l5-18.7h-2.9l0.7-2.7h8.6L222.3,170.9z"/>
	<path fill="#262262" d="M221.7,189.5h-2.9l5.7-21.4h2.9L221.7,189.5z"/>
	<path fill="#262262" d="M229.9,186c0,0.2,0,0.3,0.1,0.3c0.1,0,0.1-0.1,0.2-0.2l6.5-17.9h2.9l-6.9,18.7c-0.8,2.1-1.7,2.9-3.1,2.9
		c-2,0-2.7-1.2-2.3-3.5l2.6-18.1h2.9L229.9,186z"/>
	<path fill="#262262" d="M243.7,172.5l-1.2,4.4h4.2l-0.7,2.7h-4.2l-1.4,5.3c-0.3,1.2,0.1,1.9,1.3,1.9h3.4l-0.7,2.7h-3.3
		c-3.2,0-4.4-1.6-3.5-4.7l1.4-5.1h-1.7l0.7-2.7h1.8l1.6-6c0.5-1.9,1.9-2.8,4.3-2.8h4.5l-0.8,2.8h-3.7
		C244.6,171,244,171.5,243.7,172.5z"/>
</g>
<circle fill="#262262" cx="63.2" cy="30.3" r="16.9"/>
<circle fill="#262262" cx="111.5" cy="46.5" r="11.2"/>
<circle fill="#262262" cx="213.1" cy="42.9" r="11.2"/>
<circle fill="#262262" cx="271.4" cy="16.9" r="16.9"/>
<path fill="none" d="M154,73.3h-5l-19.5,72.8h6.4c4.6,0,7.6-2.3,8.9-7.2L160,81.8C161.4,76.2,159.4,73.3,154,73.3z"/>
<path fill="none" d="M50.4,72.5c-3.5,0-5.7,1.8-6.6,5.5l-10.9,40.8h13.4l10.4-39C58,75,56,72.5,50.4,72.5z"/>
<path fill="none" d="M109.2,81.8c1.4-5.6-0.5-8.5-6.1-8.5h-5l-7.4,27.8h7.7c3.8,0,6.3-2.1,7.4-6.5L109.2,81.8z"/>
<path fill="none" d="M204.4,72.5c-3.5,0-5.7,1.8-6.6,5.5l-10.9,40.8h13.4l10.4-39C212,75,210,72.5,204.4,72.5z"/>
<path fill="#262262" d="M51.6,59.6c-10.4,0-17.2,4.6-19.5,13.4l-12.2,45.7h-8.2l-3.3,12.4h8.1l-7.3,27.4h13l7.3-27.4h13.4l-7.3,27.4
	h13L69.3,81C73.1,66.9,66.9,59.6,51.6,59.6z M56.6,79.8l-10.4,39H32.8L43.7,78c0.9-3.6,3.1-5.5,6.6-5.5C56,72.5,58,75,56.6,79.8z"/>
<path fill="#262262" d="M105.6,107.2c7-1.4,11.3-5.5,13.2-12.2l3.3-12.4c3.8-14.5-1.6-21.6-16.2-21.6H88.3l-10.7,40.1h-8.1
	l-3.3,12.4h7.9l-12,45.1h13l12-45.1h7.8c3.8,0,4.8,2.9,3.3,8.7l-9.8,36.4h13.3l9.9-37.5C113.6,114,111.6,109.4,105.6,107.2z
	 M98.3,101.1h-7.7l7.4-27.8h5c5.6,0,7.6,2.9,6.1,8.5l-3.4,12.8C104.6,99,102.1,101.1,98.3,101.1z"/>
<path fill="#262262" d="M205.6,59.6c-10.4,0-17.2,4.6-19.5,13.4l-12.2,45.7h-10.6l-3.3,12.4h10.5l-7.3,27.4h13l7.3-27.4h13.4
	l-7.3,27.4h13L223.3,81C227.1,66.9,220.9,59.6,205.6,59.6z M210.7,79.8l-10.4,39h-13.4L197.8,78c0.9-3.6,3.1-5.5,6.6-5.5
	C210,72.5,212,75,210.7,79.8z"/>
<path fill="#262262" d="M256.3,59.6c-10.6,0-17.3,4.6-19.7,13.4l-17.5,65.4c-3.5,13.4,3.1,21.4,17.9,21.4c10,0,17.2-5,19.5-13.4
	l3.6-13.2h-13l-2.3,8.2c-0.9,3.4-3.6,5.5-7.2,5.5c-4.8,0-6.9-2.7-5.7-7.3L248.3,78c0.9-3.6,3.5-5.5,7.3-5.5c4.8,0,6.8,2.5,5.6,7.3
	l-1.6,6.4h12.9l1.3-5.2C277.4,66.9,271.4,59.6,256.3,59.6z"/>
<path fill="#FBB040" d="M139.9,55.3c5.7-0.2,4.1,4.2,7.8,3.8c-0.1-0.9-0.1-1.8,0-2.7c0.1-0.7,0.2-1.3,0.4-2
	c-2.2,1.4-4.3-3.1-8.4,0.6c-0.1,0.1-0.1,0.2,0,0.2C139.8,55.3,139.8,55.3,139.9,55.3z"/>
<path fill="#FBB040" d="M149.7,51.4c1-1.3,2.2-2.3,3.6-3c-2.5-0.6-0.8-5.2-6.3-5.5c-0.1,0-0.2,0.1-0.2,0.2c0,0,0,0.1,0.1,0.1
	C151,47.1,146.7,49.1,149.7,51.4z"/>
<path fill="#FBB040" d="M168.3,56.2c0.1,0.9,0.1,1.8,0,2.7c-0.1,0.7-0.2,1.3-0.4,2c2.2-1.4,4.3,3.1,8.4-0.6c0.1-0.1,0.1-0.2,0-0.2
	c0,0-0.1-0.1-0.1-0.1C170.4,60.2,172.1,55.8,168.3,56.2z"/>
<path fill="#FBB040" d="M159.3,47.4c0.7,0.1,1.3,0.2,2,0.4c-1.4-2.2,3.1-4.3-0.6-8.4c-0.1-0.1-0.2-0.1-0.2,0c0,0-0.1,0.1-0.1,0.1
	c0.2,5.7-4.2,4.1-3.8,7.8C157.5,47.3,158.4,47.3,159.3,47.4z"/>
<path fill="#FBB040" d="M167.3,53c0.6-2.5,5.2-0.8,5.5-6.3c0-0.1-0.1-0.2-0.2-0.2c0,0-0.1,0-0.1,0.1c-3.9,4.1-5.9-0.1-8.2,2.9
	C165.5,50.3,166.6,51.6,167.3,53z"/>
<path fill="#FBB040" d="M165.1,62.1c0.6-1,1-2.1,1.2-3.3c0.6-4.6-2.7-8.7-7.2-9.3c-4.6-0.6-8.7,2.7-9.3,7.2c-0.2,1.5,0.1,3,0.6,4.3
	h6.2C159.9,60.9,162.7,61.3,165.1,62.1z"/>
<path fill="#FFFFFF" d="M157,65.9c3.3,0.4,6.4-1.2,8.1-3.9c-2.4-0.7-5.2-1.1-8.5-1.1h-6.2C151.5,63.6,153.9,65.6,157,65.9z"/>
<path fill="#262262" d="M165.1,62.1c-1.7,2.7-4.8,4.3-8.1,3.9c-3-0.4-5.5-2.4-6.6-5h-11.1l-26.1,97.6h23.2
	c10.8,0,17.2-4.2,19.5-12.6l3.9-14.7l3.3-12.4l9.7-36.2C175.9,71.4,173.3,64.5,165.1,62.1z M160,81.8L144.7,139
	c-1.3,4.8-4.3,7.2-8.9,7.2h-6.4L149,73.3h5C159.4,73.3,161.4,76.2,160,81.8z"/>
</svg>
