<?xml version="1.0" encoding="UTF-8" standalone="no"?>
<svg
   width="100pt"
   height="100pt"
   version="1.1"
   viewBox="0 0 100 100"
   id="svg3346"
   sodipodi:docname="sea-ice.svg"
   inkscape:version="1.1 (c4e8f9e, 2021-05-24)"
   xmlns:inkscape="http://www.inkscape.org/namespaces/inkscape"
   xmlns:sodipodi="http://sodipodi.sourceforge.net/DTD/sodipodi-0.dtd"
   xmlns="http://www.w3.org/2000/svg"
   xmlns:svg="http://www.w3.org/2000/svg">
  <sodipodi:namedview
     id="namedview3348"
     pagecolor="#ffffff"
     bordercolor="#666666"
     borderopacity="1.0"
     inkscape:pageshadow="2"
     inkscape:pageopacity="0.0"
     inkscape:pagecheckerboard="0"
     inkscape:document-units="pt"
     showgrid="false"
     width="100pt"
     inkscape:zoom="0.73392857"
     inkscape:cx="409.44039"
     inkscape:cy="442.14112"
     inkscape:window-width="1296"
     inkscape:window-height="907"
     inkscape:window-x="61"
     inkscape:window-y="25"
     inkscape:window-maximized="0"
     inkscape:current-layer="g3344" />
  <defs
     id="defs3240">
    <symbol
       id="h"
       overflow="visible">
      <path
         d="m 18.766,-1.125 c -0.96875,0.5 -1.9805,0.875 -3.0312,1.125 -1.043,0.25781 -2.1367,0.39062 -3.2812,0.39062 -3.3984,0 -6.0898,-0.94531 -8.0781,-2.8438 -1.9922,-1.9062 -2.9844,-4.4844 -2.9844,-7.7344 0,-3.2578 0.99219,-5.8359 2.9844,-7.7344 1.9883,-1.9062 4.6797,-2.8594 8.0781,-2.8594 1.1445,0 2.2383,0.13281 3.2812,0.39062 1.0508,0.25 2.0625,0.625 3.0312,1.125 v 4.2188 c -0.98047,-0.65625 -1.9453,-1.1406 -2.8906,-1.4531 -0.94922,-0.3125 -1.9492,-0.46875 -3,-0.46875 -1.875,0 -3.3516,0.60547 -4.4219,1.8125 -1.0742,1.1992 -1.6094,2.8555 -1.6094,4.9688 0,2.1055 0.53516,3.7617 1.6094,4.9688 1.0703,1.1992 2.5469,1.7969 4.4219,1.7969 1.0508,0 2.0508,-0.14844 3,-0.45312 0.94531,-0.3125 1.9102,-0.80078 2.8906,-1.4688 z"
         id="path3177" />
    </symbol>
    <symbol
       id="d"
       overflow="visible">
      <path
         d="m 13.734,-11.141 c -0.4375,-0.19531 -0.87109,-0.34375 -1.2969,-0.4375 -0.41797,-0.10156 -0.83984,-0.15625 -1.2656,-0.15625 -1.2617,0 -2.2305,0.40625 -2.9062,1.2188 -0.67969,0.80469 -1.0156,1.9531 -1.0156,3.4531 v 7.0625 H 2.3591 v -15.312 h 4.8906 v 2.5156 c 0.625,-1 1.3438,-1.7266 2.1562,-2.1875 0.82031,-0.46875 1.8008,-0.70312 2.9375,-0.70312 0.16406,0 0.34375,0.01172 0.53125,0.03125 0.19531,0.01172 0.47656,0.03906 0.84375,0.07813 z"
         id="path3180" />
    </symbol>
    <symbol
       id="a"
       overflow="visible">
      <path
         d="m 17.641,-7.7031 v 1.4062 H 6.188 c 0.125,1.1484 0.53906,2.0078 1.25,2.5781 0.70703,0.57422 1.7031,0.85938 2.9844,0.85938 1.0312,0 2.082,-0.14844 3.1562,-0.45312 1.082,-0.3125 2.1914,-0.77344 3.3281,-1.3906 v 3.7656 c -1.1562,0.4375 -2.3125,0.76562 -3.4688,0.98438 -1.1562,0.22656 -2.3125,0.34375 -3.4688,0.34375 -2.7734,0 -4.9297,-0.70312 -6.4688,-2.1094 -1.5312,-1.4062 -2.2969,-3.3789 -2.2969,-5.9219 0,-2.5 0.75391,-4.4609 2.2656,-5.8906 1.5078,-1.4375 3.582,-2.1562 6.2188,-2.1562 2.4062,0 4.332,0.73047 5.7812,2.1875 1.4453,1.4492 2.1719,3.3828 2.1719,5.7969 z m -5.0312,-1.625 c 0,-0.92578 -0.27344,-1.6719 -0.8125,-2.2344 -0.54297,-0.57031 -1.25,-0.85938 -2.125,-0.85938 -0.94922,0 -1.7188,0.26562 -2.3125,0.79688 -0.5937,0.53126 -0.96484,1.2969 -1.1094,2.2969 z"
         id="path3183" />
    </symbol>
    <symbol
       id="c"
       overflow="visible">
      <path
         d="m 9.2188,-6.8906 c -1.0234,0 -1.793,0.17188 -2.3125,0.51562 -0.51172,0.34375 -0.76562,0.85547 -0.76562,1.5312 0,0.625 0.20703,1.1172 0.625,1.4688 0.41406,0.34375 0.98828,0.51562 1.7188,0.51562 0.92578,0 1.7031,-0.32812 2.3281,-0.98438 0.63281,-0.66406 0.95312,-1.4922 0.95312,-2.4844 v -0.5625 z m 7.4688,-1.8438 V 0 h -4.9219 v -2.2656 c -0.65625,0.92969 -1.3984,1.6055 -2.2188,2.0312 -0.82422,0.41406 -1.8242,0.625 -3,0.625 -1.5859,0 -2.8711,-0.45703 -3.8594,-1.375 -0.99219,-0.92578 -1.4844,-2.1289 -1.4844,-3.6094 0,-1.7891 0.61328,-3.1016 1.8438,-3.9375 1.2383,-0.84375 3.1797,-1.2656 5.8281,-1.2656 h 2.8906 v -0.39062 c 0,-0.76953 -0.30859,-1.332 -0.92188,-1.6875 -0.61719,-0.36328 -1.5703,-0.54688 -2.8594,-0.54688 -1.0547,0 -2.0312,0.10547 -2.9375,0.3125 -0.89844,0.21094 -1.7305,0.52344 -2.5,0.9375 v -3.7344 c 1.0391,-0.25 2.0859,-0.44141 3.1406,-0.57812 1.0625,-0.13281 2.125,-0.20312 3.1875,-0.20312 2.7578,0 4.75,0.54688 5.9688,1.6406 1.2266,1.0859 1.8438,2.8555 1.8438,5.3125 z"
         id="path3186" />
    </symbol>
    <symbol
       id="b"
       overflow="visible">
      <path
         d="m 7.7031,-19.656 v 4.3438 H 12.75 v 3.5 H 7.7031 v 6.5 c 0,0.71094 0.14062,1.1875 0.42188,1.4375 0.28126,0.25 0.83594,0.375 1.6719,0.375 h 2.5156 v 3.5 h -4.1875 c -1.9375,0 -3.3125,-0.39844 -4.125,-1.2031 -0.80469,-0.8125 -1.2031,-2.1797 -1.2031,-4.1094 v -6.5 h -2.4219 v -3.5 h 2.4219 v -4.3438 z"
         id="path3189" />
    </symbol>
    <symbol
       id="k"
       overflow="visible">
      <path
         d="m 12.766,-13.078 v -8.2031 h 4.9219 V -1e-4 H 12.766 v -2.2188 c -0.66797,0.90625 -1.4062,1.5703 -2.2188,1.9844 -0.8126,0.4141 -1.7578,0.625 -2.8281,0.625 -1.8867,0 -3.4336,-0.75 -4.6406,-2.25 -1.2109,-1.5 -1.8125,-3.4258 -1.8125,-5.7812 0,-2.3633 0.60156,-4.2969 1.8125,-5.7969 1.207,-1.5 2.7539,-2.25 4.6406,-2.25 1.0625,0 2,0.21484 2.8125,0.64062 0.82031,0.42969 1.5664,1.0859 2.2344,1.9688 z m -3.2188,9.9219 c 1.0391,0 1.8359,-0.37891 2.3906,-1.1406 0.55078,-0.76953 0.82812,-1.8828 0.82812,-3.3438 0,-1.457 -0.27734,-2.5664 -0.82812,-3.3281 -0.55469,-0.76953 -1.3516,-1.1562 -2.3906,-1.1562 -1.043,0 -1.8398,0.38672 -2.3906,1.1562 -0.55469,0.76172 -0.82812,1.8711 -0.82812,3.3281 0,1.4609 0.27344,2.5742 0.82812,3.3438 0.55078,0.76172 1.3477,1.1406 2.3906,1.1406 z"
         id="path3192" />
    </symbol>
    <symbol
       id="j"
       overflow="visible">
      <path
         d="m 10.5,-3.1562 c 1.0508,0 1.8516,-0.37891 2.4062,-1.1406 0.55078,-0.76953 0.82812,-1.8828 0.82812,-3.3438 0,-1.457 -0.27734,-2.5664 -0.82812,-3.3281 -0.55469,-0.76953 -1.3555,-1.1562 -2.4062,-1.1562 -1.0547,0 -1.8594,0.38672 -2.4219,1.1562 -0.55469,0.77344 -0.82812,1.8828 -0.82812,3.3281 0,1.4492 0.27344,2.5586 0.82812,3.3281 0.5625,0.77344 1.3672,1.1562 2.4219,1.1562 z m -3.25,-9.9219 c 0.67578,-0.88281 1.4219,-1.5391 2.2344,-1.9688 0.82031,-0.42578 1.7656,-0.64062 2.8281,-0.64062 1.8945,0 3.4453,0.75 4.6562,2.25 1.207,1.5 1.8125,3.4336 1.8125,5.7969 0,2.3555 -0.60547,4.2812 -1.8125,5.7812 -1.2109,1.5 -2.7617,2.25 -4.6562,2.25 -1.0625,0 -2.0078,-0.21094 -2.8281,-0.625 C 8.6719,-0.6602 7.9258,-1.32032 7.25,-2.21882 V -2e-5 H 2.3594 v -21.281 H 7.25 Z"
         id="path3195" />
    </symbol>
    <symbol
       id="i"
       overflow="visible">
      <path
         d="m 0.34375,-15.312 h 4.8906 l 4.125,10.391 3.5,-10.391 h 4.8906 l -6.4375,16.766 c -0.64844,1.6953 -1.4023,2.8828 -2.2656,3.5625 -0.86719,0.6875 -2,1.0312 -3.4062,1.0312 H 2.79685 V 2.8289 h 1.5312 c 0.83203,0 1.4375,-0.13672 1.8125,-0.40625 C 6.52336,2.16093 6.82024,1.69218 7.03117,1.01645 L 7.17179,0.59457 Z"
         id="path3198" />
    </symbol>
    <symbol
       id="f"
       overflow="visible">
      <path
         d="M 2.3594,-15.312 H 7.25 V 0 H 2.3594 Z m 0,-5.9688 H 7.25 v 4 H 2.3594 Z"
         id="path3201" />
    </symbol>
    <symbol
       id="u"
       overflow="visible">
      <path
         d="m 0.42188,-15.312 h 4.8906 l 3.8281,10.578 3.7969,-10.578 h 4.9062 L 11.81248,0 h -5.375 z"
         id="path3204" />
    </symbol>
    <symbol
       id="t"
       overflow="visible">
      <path
         d="m 2.5781,-20.406 h 6.6875 l 4.6562,10.922 4.6719,-10.922 h 6.6875 V 0 H 20.2968 V -14.938 L 15.5937,-3.922 H 12.2656 L 7.5625,-14.938 V 0 H 2.5781 Z"
         id="path3207" />
    </symbol>
    <symbol
       id="g"
       overflow="visible">
      <path
         d="M 17.75,-9.3281 V 0 h -4.9219 v -7.1406 c 0,-1.3203 -0.03125,-2.2344 -0.09375,-2.7344 -0.0625,-0.5 -0.16797,-0.86719 -0.3125,-1.1094 -0.1875,-0.3125 -0.44922,-0.55469 -0.78125,-0.73438 -0.32422,-0.17578 -0.69531,-0.26562 -1.1094,-0.26562 -1.0234,0 -1.8242,0.39844 -2.4062,1.1875 -0.58594,0.78125 -0.875,1.8711 -0.875,3.2656 V -1e-4 H 2.3594 v -15.312 H 7.25 v 2.2344 c 0.73828,-0.88281 1.5195,-1.5391 2.3438,-1.9688 0.83203,-0.42578 1.75,-0.64062 2.75,-0.64062 1.7695,0 3.1133,0.54688 4.0312,1.6406 0.91406,1.0859 1.375,2.6562 1.375,4.7188 z"
         id="path3210" />
    </symbol>
    <symbol
       id="s"
       overflow="visible">
      <path
         d="m 12.422,-21.281 v 3.2188 H 9.7189 c -0.6875,0 -1.1719,0.125 -1.4531,0.375 -0.27344,0.25 -0.40625,0.6875 -0.40625,1.3125 v 1.0625 h 4.1875 v 3.5 H 7.85955 V -2e-4 h -4.8906 v -11.812 h -2.4375 v -3.5 h 2.4375 v -1.0625 c 0,-1.6641 0.46094,-2.8984 1.3906,-3.7031 0.92578,-0.80078 2.3672,-1.2031 4.3281,-1.2031 z"
         id="path3213" />
    </symbol>
    <symbol
       id="e"
       overflow="visible">
      <path
         d="m 9.6406,-12.188 c -1.0859,0 -1.9141,0.39062 -2.4844,1.1719 -0.57422,0.78125 -0.85938,1.9062 -0.85938,3.375 0,1.4688 0.28516,2.5938 0.85938,3.375 0.57031,0.77344 1.3984,1.1562 2.4844,1.1562 1.0625,0 1.875,-0.38281 2.4375,-1.1562 0.57031,-0.78125 0.85938,-1.9062 0.85938,-3.375 0,-1.4688 -0.28906,-2.5938 -0.85938,-3.375 -0.5625,-0.78125 -1.375,-1.1719 -2.4375,-1.1719 z m 0,-3.5 c 2.6328,0 4.6914,0.71484 6.1719,2.1406 1.4766,1.418 2.2188,3.3867 2.2188,5.9062 0,2.5117 -0.74219,4.4805 -2.2188,5.9062 C 14.332,-0.317 12.2734,0.39 9.6406,0.39 6.9922,0.39 4.9258,-0.31703 3.4375,-1.735 1.9453,-3.1608 1.2031,-5.1295 1.2031,-7.6412 c 0,-2.5195 0.74219,-4.4883 2.2344,-5.9062 1.4883,-1.4258 3.5547,-2.1406 6.2031,-2.1406 z"
         id="path3216" />
    </symbol>
    <symbol
       id="r"
       overflow="visible">
      <path
         d="m 16.547,-12.766 c 0.61328,-0.94531 1.3477,-1.6719 2.2031,-2.1719 0.85156,-0.5 1.7891,-0.75 2.8125,-0.75 1.7578,0 3.0977,0.54688 4.0156,1.6406 0.92578,1.0859 1.3906,2.6562 1.3906,4.7188 V -4e-4 h -4.9219 v -7.9844 -0.35938 c 0.0078,-0.13281 0.01563,-0.32031 0.01563,-0.5625 0,-1.082 -0.16406,-1.8633 -0.48438,-2.3438 -0.3125,-0.48828 -0.82422,-0.73438 -1.5312,-0.73438 -0.92969,0 -1.6484,0.38672 -2.1562,1.1562 -0.51172,0.76172 -0.77344,1.8672 -0.78125,3.3125 v 7.5156 h -4.9219 v -7.9844 c 0,-1.6953 -0.14844,-2.7852 -0.4375,-3.2656 -0.29297,-0.48828 -0.8125,-0.73438 -1.5625,-0.73438 -0.9375,0 -1.6641,0.38672 -2.1719,1.1562 -0.51172,0.76172 -0.76562,1.8594 -0.76562,3.2969 v 7.5312 h -4.9219 v -15.312 h 4.9219 v 2.2344 c 0.60156,-0.86328 1.2891,-1.5156 2.0625,-1.9531 0.78125,-0.4375 1.6406,-0.65625 2.5781,-0.65625 1.0625,0 2,0.25781 2.8125,0.76562 0.8125,0.51172 1.4258,1.2305 1.8438,2.1562 z"
         id="path3219" />
    </symbol>
    <symbol
       id="q"
       overflow="visible">
      <path
         d="M 17.75,-9.3281 V 0 h -4.9219 v -7.1094 c 0,-1.3438 -0.03125,-2.2656 -0.09375,-2.7656 -0.0625,-0.5 -0.16797,-0.86719 -0.3125,-1.1094 -0.1875,-0.3125 -0.44922,-0.55469 -0.78125,-0.73438 -0.32422,-0.17578 -0.69531,-0.26562 -1.1094,-0.26562 -1.0234,0 -1.8242,0.39844 -2.4062,1.1875 -0.58594,0.78125 -0.875,1.8711 -0.875,3.2656 V -1e-4 H 2.3594 v -21.281 H 7.25 v 8.2031 c 0.73828,-0.88281 1.5195,-1.5391 2.3438,-1.9688 0.83203,-0.42578 1.75,-0.64062 2.75,-0.64062 1.7695,0 3.1133,0.54688 4.0312,1.6406 0.91406,1.0859 1.375,2.6562 1.375,4.7188 z"
         id="path3222" />
    </symbol>
    <symbol
       id="p"
       overflow="visible">
      <path
         d="m 2.5781,-20.406 h 5.875 l 7.4219,14 v -14 h 4.9844 V 0 h -5.875 L 7.5625,-14 V 0 H 2.5781 Z"
         id="path3225" />
    </symbol>
    <symbol
       id="o"
       overflow="visible">
      <path
         d="m 2.1875,-5.9688 v -9.3438 h 4.9219 v 1.5312 c 0,0.83594 -0.00781,1.875 -0.015625,3.125 -0.011719,1.25 -0.015625,2.0859 -0.015625,2.5 0,1.2422 0.03125,2.1328 0.09375,2.6719 0.070313,0.54297 0.17969,0.93359 0.32812,1.1719 0.20703,0.32422 0.47266,0.57422 0.79688,0.75 0.32031,0.16797 0.69141,0.25 1.1094,0.25 1.0195,0 1.8203,-0.39062 2.4062,-1.1719 0.58203,-0.78125 0.875,-1.8672 0.875,-3.2656 v -7.5625 h 4.8906 V -6e-4 H 12.6875 V -2.2194 C 11.94531,-1.32096 11.1641,-0.6608 10.3437,-0.235 9.51948,0.17906 8.6093,0.39 7.6093,0.39 5.8476,0.39 4.5038,-0.14906 3.5781,-1.235 2.64841,-2.317 2.1875,-3.8952 2.1875,-5.9694 Z"
         id="path3228" />
    </symbol>
    <symbol
       id="n"
       overflow="visible">
      <path
         d="m 2.5781,-20.406 h 8.7344 c 2.5938,0 4.582,0.57812 5.9688,1.7344 1.3945,1.1484 2.0938,2.7891 2.0938,4.9219 0,2.1367 -0.69922,3.7812 -2.0938,4.9375 -1.3867,1.1562 -3.375,1.7344 -5.9688,1.7344 H 7.8281 V 3e-4 h -5.25 z m 5.25,3.8125 v 5.7031 H 10.75 c 1.0195,0 1.8047,-0.25 2.3594,-0.75 0.5625,-0.5 0.84375,-1.2031 0.84375,-2.1094 0,-0.91406 -0.28125,-1.6172 -0.84375,-2.1094 -0.55469,-0.48828 -1.3398,-0.73438 -2.3594,-0.73438 z"
         id="path3231" />
    </symbol>
    <symbol
       id="m"
       overflow="visible">
      <path
         d="M 2.3594,-15.312 H 7.25 v 15.031 c 0,2.0508 -0.49609,3.6172 -1.4844,4.7031 -0.98047,1.082 -2.4062,1.625 -4.2812,1.625 H -0.9375 V 2.8283 h 0.85938 c 0.92578,0 1.5625,-0.21094 1.9062,-0.625 0.35156,-0.41797 0.53125,-1.2461 0.53125,-2.4844 z m 0,-5.9688 H 7.25 v 4 H 2.3594 Z"
         id="path3234" />
    </symbol>
    <symbol
       id="l"
       overflow="visible">
      <path
         d="m 14.719,-14.828 v 3.9844 c -0.65625,-0.45703 -1.3242,-0.79688 -2,-1.0156 -0.66797,-0.21875 -1.3594,-0.32812 -2.0781,-0.32812 -1.3672,0 -2.4336,0.40234 -3.2031,1.2031 -0.76172,0.79297 -1.1406,1.9062 -1.1406,3.3438 0,1.4297 0.37891,2.543 1.1406,3.3438 0.76953,0.79297 1.8359,1.1875 3.2031,1.1875 0.75781,0 1.4844,-0.10938 2.1719,-0.32812 0.6875,-0.22656 1.3203,-0.56641 1.9062,-1.0156 v 4 c -0.76172,0.28125 -1.5391,0.48828 -2.3281,0.625 -0.78125,0.14453 -1.5742,0.21875 -2.375,0.21875 -2.7617,0 -4.9219,-0.70703 -6.4844,-2.125 -1.5547,-1.4141 -2.3281,-3.3828 -2.3281,-5.9062 0,-2.5312 0.77344,-4.5039 2.3281,-5.9219 1.5625,-1.4141 3.7227,-2.125 6.4844,-2.125 0.80078,0 1.5938,0.07422 2.375,0.21875 0.78125,0.13672 1.5547,0.35156 2.3281,0.64062 z"
         id="path3237" />
    </symbol>
  </defs>
  <g
     id="g3344">
    <g
       id="g3441"
       transform="matrix(0.19969371,0,0,0.19969371,-19.812716,-5.4586775)">
      <path
         d="m 592.2,302.29 -14.164,-17.617 c 0.0781,-2.2695 0.16406,-4.5117 0.16406,-6.9727 0,-30.453 -5.9297,-45.891 -11.664,-60.82 -5.5234,-14.371 -10.734,-27.945 -10.734,-55.805 0,-27.86 5.2148,-41.43 10.734,-55.797 5.7344,-14.93 11.664,-30.367 11.664,-60.82 h -14 c 0,27.859 -5.2148,41.43 -10.734,55.805 -5.7344,14.93 -11.664,30.367 -11.664,60.82 0,30.453 5.9297,45.898 11.664,60.828 4.7773,12.414 9.3008,24.258 10.449,45.207 l -55.988,-69.641 -13.254,18.188 c -4.5078,-11.75 -8.6875,-23.336 -9.8945,-42.891 l 41.602,11.918 20.922,-122.04 h -41.34 c 0.51953,-5.4492 0.83984,-11.426 0.83984,-18.207 h -14 c 0,6.8828 -0.33984,12.84 -0.90234,18.199 h -53.84 c 0.52734,-5.4375 0.85156,-11.406 0.85156,-18.199 h -14 c 0,6.8945 -0.34766,12.848 -0.91797,18.199 h -26.918 l -25.48,5.7188 c 0.92578,-6.8828 1.4961,-14.676 1.4961,-23.918 h -14 c 0,11.027 -0.84375,19.734 -2.1836,27.215 l -60.027,13.473 c 2.8008,-10.398 4.8047,-23.004 4.8047,-40.695 h -14 c 0,20.453 -2.8125,33.195 -6.4922,44.219 l -50.43,11.324 41.875,12 c -4.0547,12.023 -7.3516,26.383 -7.3516,49.09 0,8.0977 0.42969,15.102 1.1602,21.348 l -20.531,-22.004 -33.066,-22.094 c 1.9258,-13.816 5.5273,-23.27 9.2852,-33.051 5.7344,-14.93 11.664,-30.367 11.664,-60.82 h -14 c 0,27.859 -5.2148,41.43 -10.734,55.805 -3.3438,8.6953 -6.7188,17.629 -8.9805,29.539 l -18.402,-12.293 -41.227,56.82 c -0.29297,-4.043 -0.45312,-8.4219 -0.45312,-13.25 0,-27.859 5.2148,-41.43 10.734,-55.797 5.7344,-14.93 11.664,-30.367 11.664,-60.82 l -14,-0.0039 c 0,27.859 -5.2148,41.43 -10.734,55.805 -5.7344,14.926 -11.664,30.363 -11.664,60.816 0,12 0.93359,21.637 2.4023,29.863 l -21.414,29.52 40.555,39.711 c 0.52734,5.1914 0.85547,10.914 0.85547,17.539 0,27.867 -5.2148,41.441 -10.734,55.816 -5.7344,14.934 -11.664,30.367 -11.664,60.832 0,24.16 3.7344,38.863 8.1406,51.367 l -13.965,40.734 26.246,-1.6953 c 1.2227,7.2578 1.9766,15.707 1.9766,26.234 h 14 c 0,-10.758 -0.78516,-19.504 -2.0039,-27.133 l 56.543,-3.6445 c 1.7344,8.2227 2.8633,17.965 2.8633,30.777 h 14 c 0,-12.926 -1.0938,-23.082 -2.7656,-31.691 l 52.832,-3.4062 c 2.2852,9.1094 3.832,19.992 3.832,35.102 h 14 c 0,-15.125 -1.4727,-26.516 -3.6523,-36.012 l 56,-3.6172 c 2.9414,10.031 5.0469,21.945 5.0469,39.625 h 14 c 0,-17.613 -1.9883,-30.18 -4.7695,-40.543 l 29.578,-1.9102 -4.3555,-119.47 -25.453,-30 c 2.9023,-10.527 5,-23.277 5,-41.367 0,-2.3203 -0.0391,-4.5352 -0.11328,-6.6758 l 13.484,15.91 35.719,-39.504 c 1.6641,8.1211 2.7266,17.734 2.7266,30.27 0,27.867 -5.2148,41.441 -10.734,55.816 -5.7344,14.934 -11.664,30.375 -11.664,60.832 0,30.457 5.9297,45.898 11.664,60.832 5.5234,14.371 10.734,27.945 10.734,55.809 h 14 c 0,-30.453 -5.9297,-45.898 -11.664,-60.828 -5.5234,-14.371 -10.734,-27.949 -10.734,-55.816 0,-27.867 5.2148,-41.441 10.734,-55.816 0.99609,-2.5859 1.9883,-5.1953 2.9609,-7.8906 l 23.352,140.1 31.227,-8.3281 c 4.3945,12.098 8.0117,25.379 8.0117,48.578 l 14.004,0.004 c 0,-24.691 -3.8984,-39.52 -8.4336,-52.199 l 51.398,-13.707 c 1.2109,3.4727 2.4531,6.8359 3.7031,10.102 5.5234,14.371 10.734,27.945 10.734,55.809 h 14 c 0,-30.453 -5.9297,-45.898 -11.664,-60.828 -1.1016,-2.8789 -2.1797,-5.7578 -3.2148,-8.6953 l 28.879,-7.6992 z m -119.34,-111 -55.156,-9.4141 c -0.75,-6.0039 -1.2031,-12.777 -1.2031,-20.797 0,-2.7617 0.0664,-5.3359 0.16406,-7.8164 l 53.938,15.449 c 0.32031,8.6484 1.0938,16.121 2.2578,22.578 z M 350.93,170.47 c -0.14453,-2.9531 -0.23438,-6.0469 -0.23438,-9.3984 0,-10.5 0.75781,-18.93 1.9805,-26.156 l 50.211,14.387 c -0.21094,3.6836 -0.36328,7.5391 -0.36328,11.77 0,6.8477 0.33203,12.863 0.86328,18.352 z M 397.86,76.646 H 530.7 l -15.477,90.277 -224.21,-64.242 c 0.26172,-0.69922 0.53125,-1.4062 0.80078,-2.1172 z m -58.719,54.395 c -1.4961,8.25 -2.4531,17.93 -2.4531,30.031 0,2.457 0.0781,4.7266 0.15234,6.9961 l -57.516,-9.8164 c 0.25781,-19.398 3.1289,-31.668 6.7969,-42.402 z m -154.02,5.5586 51.121,33.969 69.949,74.957 -54.305,15.023 -71.73,11.957 -54.746,-53.609 z m 102.57,141.11 c 0,12.891 -1.1328,22.688 -2.8789,30.953 l -34.016,12.062 h -22.473 c 3.1406,-10.836 5.4766,-23.945 5.4805,-42.965 l 20.754,-3.4609 32.68,-9.0234 c 0.26562,3.8359 0.45312,7.875 0.45312,12.434 z m -147.69,116.65 c 0,-27.867 5.2148,-41.441 10.734,-55.816 5.7344,-14.934 11.664,-30.375 11.664,-60.832 0,-1.0547 -0.0273,-2.0234 -0.043,-3.0352 l 13.086,12.812 44.309,-7.3789 c -0.21094,18.305 -2.7266,30.324 -6.0664,40.621 h -36.691 l -34.754,101.36 c -1.3711,-7.5859 -2.2383,-16.473 -2.2383,-27.727 z m 243.41,61.094 -243.18,15.688 46.777,-136.41 h 66.203 l 84.402,-29.938 42.117,49.645 z m -24.32,-177.74 c 0,11.414 -0.89062,20.391 -2.3008,28.043 l -14.75,-17.387 -42.086,14.926 c 1.0742,-7.2461 1.7344,-15.566 1.7344,-25.574 0,-5.9766 -0.24609,-11.316 -0.66016,-16.234 l 31.16,-8.6055 -47.449,-50.848 c -3.1523,-10.305 -5.4492,-22.477 -5.4492,-40.941 0,-0.19141 0.004,-0.36328 0.004,-0.55469 l 77.98,91.969 c 1.125,7.0156 1.8164,15.176 1.8164,25.207 z m -46.516,-99.574 132.88,22.68 -58.652,64.871 z m 120.93,56.777 39.375,-43.551 c 2.25,12.438 5.7383,21.594 9.1836,30.543 0.93359,2.4258 1.8477,4.8398 2.7383,7.2969 l -46.453,63.738 c 0.35156,-4.6406 0.55859,-9.6836 0.55859,-15.23 0,-18.914 -2.2969,-31.992 -5.4023,-42.797 z m 144.69,188.11 -113.36,30.223 -23.453,-140.7 67.082,-92.055 69.73,86.734 z"
         id="path3242" />
      <path
         d="m 168.17,221.98 30.797,-37.602 10.832,8.8711 -30.797,37.602 z"
         id="path3244" />
      <path
         d="m 243.56,194.62 -30.797,37.602 -10.832,-8.8711 30.797,-37.602 z"
         id="path3246" />
      <path
         d="m 227.62,413.18 30.801,-37.613 10.832,8.8711 -30.801,37.613 z"
         id="path3248" />
      <path
         d="m 272.16,423.42 -10.832,-8.8711 30.805,-37.602 10.832,8.8711 z"
         id="path3250" />
      <path
         d="m 482.73,369.43 -10.832,-8.8711 30.805,-37.609 10.832,8.8711 z"
         id="path3252" />
      <path
         d="m 547.26,333.19 -30.805,37.602 -10.832,-8.8711 30.805,-37.602 z"
         id="path3254" />
      <path
         d="m 452.33,90.285 10.832,8.8711 -30.805,37.609 -10.832,-8.8711 z"
         id="path3256" />
      <path
         d="m 496.86,100.52 -30.805,37.602 -10.832,-8.8711 30.805,-37.602 z"
         id="path3258" />
      <path
         d="m 366.73,233.36 -10.832,-8.8711 16.102,-19.656 10.832,8.8711 z"
         id="path3260" />
      <path
         d="m 386.01,225.22 16.102,-19.656 10.832,8.8711 -16.102,19.656 z"
         id="path3262" />
    </g>
  </g>
</svg>
