<?xml version="1.0" encoding="UTF-8" standalone="no"?>
<svg
   width="100pt"
   height="100pt"
   version="1.1"
   viewBox="0 0 100 100"
   id="svg1327"
   sodipodi:docname="snow.svg"
   inkscape:version="1.1 (c4e8f9e, 2021-05-24)"
   xmlns:inkscape="http://www.inkscape.org/namespaces/inkscape"
   xmlns:sodipodi="http://sodipodi.sourceforge.net/DTD/sodipodi-0.dtd"
   xmlns="http://www.w3.org/2000/svg"
   xmlns:svg="http://www.w3.org/2000/svg">
  <defs
     id="defs1331" />
  <sodipodi:namedview
     id="namedview1329"
     pagecolor="#ffffff"
     bordercolor="#666666"
     borderopacity="1.0"
     inkscape:pageshadow="2"
     inkscape:pageopacity="0.0"
     inkscape:pagecheckerboard="0"
     inkscape:document-units="pt"
     showgrid="false"
     fit-margin-top="0"
     fit-margin-left="0"
     fit-margin-right="0"
     fit-margin-bottom="0"
     inkscape:zoom="0.36696429"
     inkscape:cx="385.59611"
     inkscape:cy="467.34793"
     inkscape:window-width="1296"
     inkscape:window-height="907"
     inkscape:window-x="61"
     inkscape:window-y="25"
     inkscape:window-maximized="0"
     inkscape:current-layer="svg1327" />
  <g
     id="g2676"
     transform="matrix(0.17538819,0,0,0.17538819,8.7036311,2.9053946)">
    <path
       d="m 2.9157461,402.7711 c 2.8555,4.9414 7.5546999,8.5508 13.0659999,10.027 5.5117,1.4805 11.387,0.71094 16.332,-2.1367 l 39,-22.512 v 45.02 c 0,5.7109 2.2695,11.191 6.3086,15.234 4.0391,4.0352 9.5156,6.3047 15.227,6.3047 5.7148,0 11.191004,-2.2695 15.230004,-6.3047 4.0391,-4.043 6.3086,-9.5234 6.3086,-15.234 v -69.895 l 49.773,-28.73 49.758,28.727 v 57.457 l -60.535,34.945 c -4.9492,2.8555 -8.5586,7.5586 -10.039,13.078 -1.4804,5.5194 -0.70703,11.398 2.1484,16.348 2.8594,4.9492 7.5625,8.5586 13.082,10.039 5.5156,1.4805 11.398,0.70312 16.344,-2.1523 l 39,-22.508 v 45.016 c 0,5.7109 2.2695,11.191 6.3086,15.234 4.0391,4.0352 9.5156,6.3047 15.23,6.3047 5.7109,0 11.191,-2.2695 15.23,-6.3047 4.0391,-4.043 6.3047,-9.5234 6.3047,-15.234 v -45.023 l 39,22.516 c 2.4492,1.4141 5.1523,2.332 7.957,2.7031 2.8047,0.36719 5.6562,0.17969 8.3906,-0.55078 2.7305,-0.73438 5.293,-1.9961 7.5352,-3.7188 2.2461,-1.7227 4.1289,-3.8672 5.543,-6.3203 1.4141,-2.4492 2.332,-5.1562 2.6992,-7.9609 0.37109,-2.8047 0.18359,-5.6523 -0.55078,-8.3867 -0.73047,-2.7305 -1.9922,-5.293 -3.7148,-7.5391 -1.7227,-2.2422 -3.8711,-4.125 -6.3203,-5.5391 l -60.539,-34.934 v -57.469 l 49.766,-28.727 49.77,28.73 v 69.895 c 0,5.7109 2.2695,11.191 6.3086,15.234 4.0391,4.0352 9.5195,6.3047 15.23,6.3047 5.7109,0 11.191,-2.2695 15.23,-6.3047 4.0391,-4.043 6.3086,-9.5234 6.3086,-15.234 v -45.02 l 39,22.512 c 2.4453,1.4141 5.1484,2.332 7.9531,2.7031 2.8047,0.36719 5.6562,0.17969 8.3867,-0.55078 2.7383,-0.73438 5.2969,-1.9961 7.5391,-3.7188 2.2461,-1.7227 4.1289,-3.8711 5.5469,-6.3203 1.4102,-2.4492 2.3281,-5.1562 2.6992,-7.9609 0.36719,-2.8047 0.17969,-5.6523 -0.55078,-8.3867 -0.73437,-2.7305 -1.9961,-5.293 -3.7188,-7.5352 -1.7227,-2.2461 -3.8711,-4.1289 -6.3203,-5.543 l -38.984,-22.508 38.984,-22.504 c 2.4492,-1.4141 4.5977,-3.2969 6.3203,-5.5391 1.7227,-2.2461 2.9844,-4.8086 3.7188,-7.5391 0.73047,-2.7344 0.91797,-5.582 0.55078,-8.3867 -0.37109,-2.8047 -1.2891,-5.5117 -2.6992,-7.9609 -1.418,-2.4492 -3.3008,-4.5977 -5.5469,-6.3203 -2.2422,-1.7227 -4.8008,-2.9844 -7.5391,-3.7188 -2.7305,-0.73047 -5.582,-0.91797 -8.3867,-0.54688 -2.8047,0.36719 -5.5078,1.2852 -7.9531,2.6992 l -60.543,34.949 -49.758,-28.742 v -57.438 l 49.758,-28.715 60.543,34.945 c 2.4453,1.4141 5.1484,2.332 7.9531,2.7031 2.8047,0.36719 5.6562,0.18359 8.3867,-0.55078 2.7383,-0.73438 5.2969,-1.9961 7.5391,-3.7188 2.2461,-1.7227 4.1289,-3.8672 5.5469,-6.3203 1.4102,-2.4492 2.3281,-5.1523 2.6992,-7.957 0.36719,-2.8047 0.17969,-5.6562 -0.55078,-8.3867 -0.73437,-2.7344 -1.9961,-5.2969 -3.7188,-7.5391 -1.7227,-2.2461 -3.8711,-4.1289 -6.3203,-5.543 l -38.984,-22.504 38.984,-22.508 c 4.9453,-2.8555 8.5547,-7.5586 10.039,-13.078 1.4766,-5.5195 0.70703,-11.398 -2.1484,-16.348 -2.8594,-4.9453 -7.5664,-8.5586 -13.086,-10.035 -5.5156,-1.4805 -11.395,-0.70703 -16.34,2.1484 l -39,22.512 v -45.035 c 0,-5.7148 -2.2695,-11.191 -6.3086,-15.23 -4.0391,-4.0391 -9.5195,-6.3086 -15.23,-6.3086 -5.7109,0 -11.191,2.2695 -15.23,6.3086 -4.0391,4.0391 -6.3086,9.5156 -6.3086,15.23 v 69.895 l -49.77,28.73 -49.758,-28.723 v -57.457 l 60.535,-34.945 c 2.4492,-1.4141 4.5977,-3.2969 6.3203,-5.5391 1.7227,-2.2461 2.9844,-4.8086 3.7188,-7.5391 0.73047,-2.7344 0.91797,-5.582 0.54688,-8.3867 -0.36719,-2.8047 -1.2852,-5.5117 -2.6992,-7.9609 -1.414,-2.4492 -3.2969,-4.5977 -5.543,-6.3203 -2.2422,-1.7227 -4.8047,-2.9844 -7.5352,-3.7188 -2.7344,-0.73047 -5.582,-0.91797 -8.3867,-0.55078 -2.8047,0.37109 -5.5117,1.2891 -7.9609,2.7031 l -38.996,22.508 v -45.02 c 0,-5.7148 -2.2695,-11.191 -6.3086,-15.23 C 246.65277,2.2695 241.17237,0 235.46187,0 c -5.7148,0 -11.191,2.2695 -15.23,6.3086 -4.0391,4.0391 -6.3086,9.5156 -6.3086,15.23 v 45.023 l -38.996,-22.516 c -4.9492,-2.8555 -10.828,-3.6289 -16.348,-2.1523 -5.5195,1.4805 -10.223,5.0898 -13.082,10.039 -2.8555,4.9492 -3.6289,10.828 -2.1484,16.348 1.4805,5.5156 5.0898,10.223 10.039,13.078 l 60.535,34.949 v 57.457 l -49.758,28.723 -49.773,-28.73 v -69.895 c 0,-5.7148 -2.2656,-11.191 -6.3086,-15.23 -4.0391,-4.0391 -9.515604,-6.3086 -15.227004,-6.3086 -5.7148,0 -11.191,2.2695 -15.23,6.3086 -4.0391,4.0391 -6.3086,9.5156 -6.3086,15.23 v 45.02 l -39.004,-22.512 c -2.4492,-1.4141 -5.1562,-2.332 -7.9609,-2.7031 -2.8047,-0.36719 -5.6562,-0.17969 -8.3867,0.55469 -2.7344,0.73047 -5.2969,1.9961 -7.5390999,3.7188 -2.2461,1.7227 -4.1289,3.8711 -5.543,6.3203 -2.85550004,4.9492 -3.62890004,10.832 -2.14840004,16.352 1.48050004,5.52 5.08980004,10.223 10.03899994,13.078 l 38.984,22.508 -38.984,22.496 c -4.9452999,2.8555 -8.5585999,7.5586 -10.03499994,13.078 -1.4805,5.5195 -0.70703,11.398 2.14840004,16.348 2.8555,4.9492 7.5624999,8.5586 13.0819999,10.039 5.5156,1.4766 11.398,0.70312 16.344,-2.1523 l 60.547,-34.93 49.758004,28.73 v 57.422 l -49.758004,28.734 -60.547,-34.941 c -4.9453,-2.8555 -10.828,-3.6289 -16.344,-2.1523 -5.5195,1.4805 -10.2269999,5.0898 -13.0819999,10.039 -2.85550004,4.9492 -3.62890004,10.828 -2.14840004,16.348 1.47660004,5.5195 5.08980004,10.223 10.03499994,13.078 l 38.984,22.504 -38.984,22.508 c -2.4491999,1.4141 -4.5976999,3.2969 -6.3202999,5.5391 -1.7188,2.2461 -2.9805,4.8086 -3.71090004,7.5391 -0.73047,2.7344 -0.91406,5.5859 -0.54297,8.3906 0.37109,2.8008 1.29690004,5.5039 2.71480004,7.9531 z m 182.7800039,-162.98 49.77,-28.734 49.766,28.734 v 57.445 l -49.766,28.734 -49.77,-28.734 z"
       id="path1325" />
  </g>
</svg>
